<svg width="1440" height="462" viewBox="0 0 1440 462" fill="none" xmlns="http://www.w3.org/2000/svg">
<path opacity="0.03" d="M53.4715 290.35V82.4004C53.4715 51.0235 51.6259 23.9532 43.0126 0.574228H135.913C127.3 23.9532 124.839 51.0235 124.839 82.4004V302.039C124.839 402.938 52.8563 462 -22.8175 462C-75.1124 462 -125.562 428.777 -142.173 353.719H-136.636C-117.564 400.477 -84.9562 435.545 -36.9679 431.238C35.6297 425.086 53.4715 353.104 53.4715 290.35ZM376.309 388.073C453.886 437.358 558.843 394.462 593.525 314.147L610.866 337.876C574.359 411.803 497.694 462 410.078 462C286.867 462 186.473 361.606 186.473 238.395C186.473 115.184 286.867 14.7903 410.078 14.7903C473.965 14.7903 535.114 41.2578 573.446 85.0661C635.508 156.255 622.73 262.125 525.074 294.981C494.956 305.02 460.275 309.584 430.156 317.798C371.745 332.4 340.714 365.257 376.309 388.073ZM327.024 351.567C354.405 295.894 426.506 285.854 477.615 264.863C520.511 246.609 530.55 208.277 519.598 170.857C503.17 115.184 444.759 70.4633 388.173 60.4239C362.619 56.7732 336.151 59.5112 312.422 73.2013C247.622 110.621 239.408 215.578 293.255 306.846C303.295 324.186 314.247 338.789 327.024 351.567ZM1097.1 350.654C1097.1 396.288 1100.75 427.318 1113.53 462H1025.91C1010.4 422.755 1009.48 386.248 1009.48 341.527V301.37C984.84 409.065 901.787 462 826.035 462C753.934 462 690.047 414.541 690.047 325.099C690.047 240.22 747.546 187.285 830.599 189.111C866.193 190.023 902.7 197.325 936.469 189.111C1026.82 166.294 1039.6 44.9085 941.945 46.7338C872.582 47.6465 805.044 85.9787 753.022 128.874L690.047 41.2578C750.284 27.5677 841.551 14.7903 922.779 14.7903C1012.22 14.7903 1097.1 27.5677 1097.1 138.001C1097.1 199.15 1097.1 302.282 1097.1 350.654ZM859.804 413.628C967.5 410.89 1001.27 255.736 1009.48 173.595C985.753 220.142 921.866 221.967 874.407 228.356C738.419 247.522 758.498 416.366 859.804 413.628ZM1190.06 14.7903H1277.67C1287.71 40.3451 1292.28 64.9873 1293.19 91.4548C1350.69 55.8605 1425.53 14.7903 1497.63 14.7903C1572.47 14.7903 1613.54 53.1225 1613.54 128.874C1613.54 198.238 1613.54 284.941 1613.54 350.654C1613.54 396.288 1617.19 427.318 1629.96 462C1589.81 462 1549.65 462 1509.49 462C1522.27 427.318 1525.92 396.288 1525.92 350.654V147.128C1525.92 59.5112 1472.07 52.2098 1404.53 74.114C1366.2 86.8914 1323.31 108.796 1294.1 125.224C1294.1 127.962 1294.1 130.7 1294.1 132.525V350.654C1294.1 396.288 1296.84 427.318 1310.53 462C1270.37 462 1230.21 462 1190.06 462C1202.83 427.318 1206.48 396.288 1206.48 350.654V126.136C1206.48 79.59 1202.83 48.5592 1190.06 14.7903Z" fill="white"/>
</svg>
