<svg viewBox="0 0 265 272" xmlns="http://www.w3.org/2000/svg">
  <path d="M0.757322 29.2831C0.342269 13.2344 13.2389 0 29.2929 0H135.589H213.214C220.791 0 226.934 6.14239 226.934 13.7194V13.7194C226.934 21.1699 232.88 27.2586 240.328 27.435L248.224 27.6219V27.6219C256.878 27.3462 264.042 34.2862 264.042 42.9441V137.017V242.634C264.042 258.399 251.262 271.179 235.497 271.179H70.6018C55.1371 271.179 42.4849 258.864 42.067 243.405L40.4449 183.386C40.1768 173.465 32.0572 165.562 22.1329 165.562V165.562C12.2002 165.562 4.07705 157.646 3.82026 147.717L0.757322 29.2831Z" fill="black"/>
</svg>


